<svg xmlns="http://www.w3.org/2000/svg" viewBox="0 0 64 64">
  <defs>
    <linearGradient id="gearRed" x1="15" y1="8" x2="50" y2="58" gradientUnits="userSpaceOnUse">
      <stop stop-color="#ff4a4a"/>
      <stop offset=".48" stop-color="#e00000"/>
      <stop offset="1" stop-color="#990000"/>
    </linearGradient>
    <filter id="softShadow" x="-20%" y="-20%" width="140%" height="140%">
      <feDropShadow dx="0" dy="2" stdDeviation="2" flood-color="#000" flood-opacity=".35"/>
    </filter>
  </defs>
  <path filter="url(#softShadow)" fill="url(#gearRed)" d="M36.2 4.5 38 11.8a21.4 21.4 0 0 1 5.7 2.4l6.4-3.9 3.6 3.6-3.9 6.4a21.4 21.4 0 0 1 2.4 5.7l7.3 1.8v5.1l-7.3 1.8a21.4 21.4 0 0 1-2.4 5.7l3.9 6.4-3.6 3.6-6.4-3.9a21.4 21.4 0 0 1-5.7 2.4l-1.8 7.3h-5.1l-1.8-7.3a21.4 21.4 0 0 1-5.7-2.4l-6.4 3.9-3.6-3.6 3.9-6.4a21.4 21.4 0 0 1-2.4-5.7L7.8 32.9v-5.1l7.3-1.8a21.4 21.4 0 0 1 2.4-5.7l-3.9-6.4 3.6-3.6 6.4 3.9a21.4 21.4 0 0 1 5.7-2.4l1.8-7.3h5.1Zm-2.6 17.1a8.9 8.9 0 1 0 0 17.8 8.9 8.9 0 0 0 0-17.8Z"/>
  <circle cx="33.6" cy="30.5" r="5.1" fill="#fff" opacity=".18"/>
</svg>
